# xmcd CD database file
#
# Track frame offsets:
#	150
#	25833
#	50045
#	69760
#	93798
#	108053
#	130708
#	149548
#	172305
#	190107
#	212138
#	232320
#
# Disc length: 3414 seconds
#
# Revision: 0
# Processed by: cddbd v1.5.2PL0 Copyright (c) Steve Scherf et al.
# Submitted via: CDex 1.70beta3
#
DISCID=aa0d540c
DTITLE=SPEED - 私のオキナワ
DYEAR=2013
DGENRE=VISION FACTORY
TTITLE0=島唄
TTITLE1=Nature Sound
TTITLE2=私のオキナワ
TTITLE3=貝殻
TTITLE4=てぃんさぐぬ花
TTITLE5=島人ぬ宝
TTITLE6=ミルクムナリ
TTITLE7=Stay With Me
TTITLE8=ハロ
TTITLE9=心の詩
TTITLE10=童神
TTITLE11=花
EXTD=YEAR: 2013
EXTT0=
EXTT1=
EXTT2=
EXTT3=
EXTT4=
EXTT5=
EXTT6=
EXTT7=
EXTT8=
EXTT9=
EXTT10=
EXTT11=
PLAYORDER=
